<?xml version="1.0" encoding="UTF-8"?>
<svg width="19mm" height="19mm" version="1.1" viewBox="0 0 71.811 71.811" xmlns="http://www.w3.org/2000/svg">
 <g transform="matrix(.95 0 0 .95 4.19681 4.19681)">
  <circle cx="33.3776" cy="33.3776" r="33.3776" fill="#fff" stroke-width="4.2092" style="paint-order:stroke fill markers"/>
  <path d="m55.6423 54.123v2.34366h-44.5294l4.73e-4 -2.34366zm-1.75774-3.51548v2.92957h-41.014v-2.92957zm-36.719-31.6393 0.488896 0.247096 0.244682 3.95118 0.24468 6.42024v6.17457l-0.24468 7.69682-0.04071 5.18523-0.692876 0.206461h-2.44541l-0.733579-0.206461-0.284915-5.18523-0.245149-7.65574v-6.17409l0.245149-6.46182 0.223628-3.97243 0.509948-0.225836zm35.1551 0 0.489458 0.247096 0.244264 3.95118 0.244263 6.42024v6.17457l-0.244263 7.69682-0.04025 5.18523-0.69348 0.206461h-2.44543l-0.73372-0.206461-0.285909-5.18523-0.244263-7.65574v-6.17409l0.244263-6.46182 0.224609-3.97243 0.509582-0.225836zm-24.6088 0 0.488944 0.247096 0.244707 3.95118 0.244706 6.42024v6.17457l-0.244706 7.69682-0.04022 5.18523-0.693411 0.206461h-2.44566l-0.734115-0.206461-0.284945-5.18523-0.244239-7.65574v-6.17409l0.244239-6.46182 0.224587-3.97243 0.509062-0.225836zm13.476 0 0.488944 0.247096 0.244707 3.95118 0.244706 6.42024v6.17457l-0.244706 7.69682-0.04022 5.18523-0.69341 0.206461h-2.44567l-0.733648-0.206461-0.285412-5.18523-0.244237-7.65574v-6.17409l0.244237-6.46182 0.224588-3.97243 0.509529-0.225836zm12.6966-5.27322v4.1014h-41.014v-4.1014zm-20.9289-7.61688 21.5148 4.92685-0.862478 1.5182h-41.2061l-1.289-1.23124z" fill-rule="evenodd" stroke-width=".947367"/>
 </g>
</svg>
