<?xml version="1.0" encoding="UTF-8"?>
<svg version="1.1" viewBox="0 0 512 512" xmlns="http://www.w3.org/2000/svg">
 <path d="m468.79 177.71c0-98.923-64.847-127.92-64.847-127.92-32.718-15-88.863-21.318-147.19-21.793h-1.4345c-58.33 0.475-114.44 6.7925-147.14 21.793 0 0-64.856 28.994-64.856 127.92 0 22.658-0.437 49.732 0.2755 78.46 2.356 96.729 17.746 192.08 107.25 215.75 41.258 10.916 76.694 13.196 105.22 11.628 51.746-2.85 80.75-18.449 80.75-18.449l-1.7005-37.525s-36.984 11.656-78.508 10.232c-41.144-1.406-84.55-4.4365-91.2-54.92a103.02 103.02 0 0 1-0.95-14.155 530.96 530.96 0 0 0 91.57 12.208c31.302 1.4345 60.648-1.8335 90.459-5.3865 57.171-6.821 106.95-42.028 113.2-74.186 9.899-50.673 9.101-123.66 9.101-123.66zm-76.513 127.45h-47.5v-116.25c0-24.51-10.317-36.946-30.951-36.946-22.8 0-34.257 14.754-34.257 43.928v63.65h-47.177v-63.65c0-29.174-11.4-43.928-34.257-43.928-20.634 0-30.951 12.436-30.951 36.946v116.25h-47.5v-119.78q0-36.718 18.762-58.32c12.92-14.392 29.83-21.774 50.834-21.774 24.301 0 42.702 9.329 54.862 28.006l11.846 19.808 11.828-19.808c12.17-18.677 30.562-28.006 54.862-28.006 21.004 0 37.914 7.3815 50.834 21.774q18.8 21.584 18.762 58.32z" fill="#fff"/>
</svg>
