<?xml version="1.0" encoding="UTF-8"?>
<svg enable-background="new 0 0 56.6934 56.6934" version="1.1" viewBox="0 0 56.693 56.693" xml:space="preserve" xmlns="http://www.w3.org/2000/svg"><g transform="translate(0 -.3467)"><g fill="#fff"><path d="m28.347 4.0423c-13.614 0-24.651 11.037-24.651 24.651s11.037 24.651 24.651 24.651c13.614 0 24.651-11.037 24.651-24.651s-11.037-24.651-24.651-24.651zm14.524 27.784c0.0613 0.3643 0.0958 0.7339 0.0958 1.1089 0 5.4205-6.5707 9.8308-14.648 9.8308-8.0773 0-14.648-4.4103-14.648-9.8308 0-0.3862 0.037-0.7666 0.1019-1.1414-1.0677-0.6891-1.7271-1.8701-1.7271-3.1509 0-2.0707 1.6848-3.7554 3.7554-3.7554 0.9107 0 1.7702 0.3252 2.4523 0.9155 2.4941-1.5862 5.8183-2.5818 9.4824-2.6794l2.6357-9.0018 6.6173 1.2294s0.0012 7e-4 2e-3 9e-4c0.3861-0.6873 1.1003-1.1713 1.9441-1.2142 1.3068-0.0668 2.4241 0.9421 2.4908 2.249 0.0667 1.3068-0.9422 2.4242-2.2491 2.4908s-2.4242-0.9423-2.4909-2.2491c-0.0023-0.0449 0.0064-0.0876 0.0067-0.1322l-5.4913-1.0204-2.2365 7.6498c3.6552 0.1079 6.9689 1.1093 9.4523 2.6984 0.6858-0.6033 1.5543-0.9365 2.4755-0.9365 2.0707 0 3.7554 1.6847 3.7554 3.7554-1e-4 1.3008-0.6798 2.4994-1.7769 3.1832z" fill="#fff"/><path d="m32.91 36.622c-0.0142 0.0135-1.4175 1.3959-4.618 1.3959-3.1459 0-4.4017-1.3351-4.4355-1.3719-0.2126-0.2439-0.5819-0.2709-0.8283-0.0609-0.2476 0.2114-0.2765 0.5845-0.0645 0.832 0.062 0.0725 1.5667 1.7805 5.3282 1.7805 3.7424 0 5.3983-1.6847 5.4672-1.7566 0.2236-0.2341 0.215-0.6028-0.0166-0.8289-0.2329-0.2266-0.6058-0.2211-0.8325 0.0099z"/><circle cx="33.3" cy="31.199" r="2.3076"/><circle cx="23.665" cy="31.199" r="2.3076"/></g></g></svg>
