<?xml version="1.0" encoding="UTF-8"?>
<svg width="91.385mm" height="91.385mm" version="1.1" viewBox="0 0 91.385 91.385" xmlns="http://www.w3.org/2000/svg">
 <g transform="translate(-59.943 -96.952)">
  <g transform="translate(248.89 -1080.4)">
   <ellipse cx="-143.26" cy="1223" rx="45.693" ry="45.693" fill="#fff"/>
   <g>
    <path d="m-143.26 1179.5a43.517 43.517 0 0 0-43.517 43.517 43.517 43.517 0 0 0 43.517 43.517 43.517 43.517 0 0 0 43.517-43.517 43.517 43.517 0 0 0-43.517-43.517zm0 8.1695a35.347 35.347 0 0 1 35.348 35.347 35.347 35.347 0 0 1-35.348 35.348 35.347 35.347 0 0 1-35.347-35.348 35.347 35.347 0 0 1 35.347-35.347z" stroke-width=".27687"/>
    <path d="m-143.26 1191.2-12.603 25.206h8.9442l3.6587-7.3179 3.6587 7.3179h8.9442zm-20.834 41.668-4.8075 9.6149 7.1551 3.5781 6.5965-13.193zm32.724 0 6.5965 13.193 7.1556-3.5781-4.8075-9.6149z" color="#000000" style="-inkscape-stroke:none;mix-blend-mode:multiply"/>
    <path d="m-158.09 1220.6v8h10.83v5.8855l2.6603 2.6597-5.2653 5.2654 2.605 2.605v9.3229h8v-6.4978l-2.6618-2.6618 5.2653-5.2653-2.6035-2.5803v-8.7333h10.828v-8z" color="#000000" style="-inkscape-stroke:none"/>
   </g>
  </g>
 </g>
</svg>
