<?xml version="1.0" encoding="UTF-8"?>
<svg enable-background="new 0 0 56.693 56.693" version="1.1" viewBox="0 0 56.693 56.693" xml:space="preserve" xmlns="http://www.w3.org/2000/svg"><path d="m28.348 3.7225c-13.6 0-24.625 11.027-24.625 24.625 0 13.6 11.025 24.623 24.625 24.623s24.623-11.023 24.623-24.623c0-13.598-11.024-24.625-24.623-24.625zm12.404 19.66c0.013 0.266 0.018 0.533 0.018 0.803 0 8.201-6.242 17.656-17.656 17.656-3.504 0-6.767-1.027-9.513-2.787 0.486 0.057 0.979 0.086 1.48 0.086 2.908 0 5.584-0.992 7.707-2.656-2.715-0.051-5.006-1.846-5.796-4.311 0.378 0.074 0.767 0.111 1.167 0.111 0.566 0 1.114-0.074 1.635-0.217-2.84-0.57-4.979-3.08-4.979-6.084 0-0.027 0-0.053 1e-3 -0.08 0.836 0.465 1.793 0.744 2.811 0.777-1.666-1.115-2.761-3.012-2.761-5.166 0-1.137 0.306-2.204 0.84-3.12 3.061 3.754 7.634 6.225 12.792 6.483-0.106-0.453-0.161-0.928-0.161-1.414 0-3.426 2.778-6.205 6.206-6.205 1.785 0 3.397 0.754 4.529 1.959 1.414-0.277 2.742-0.795 3.941-1.506-0.465 1.45-1.448 2.666-2.73 3.433 1.257-0.15 2.453-0.484 3.565-0.977-0.83 1.247-1.883 2.34-3.096 3.215z" fill="#fff"/></svg>
