<?xml version="1.0" encoding="UTF-8"?>
<svg width="56.693px" height="56.693px" enable-background="new -1163 1657.697 56.693 56.693" version="1.1" viewBox="-1163 1657.7 56.693 56.693" xml:space="preserve" xmlns="http://www.w3.org/2000/svg"><g transform="translate(.0060504 -.89464)" fill="#fff"><path d="m-1134.7 1662.9c-13.601 0-24.63 11.027-24.63 24.63 0 10.882 7.0573 20.114 16.844 23.371 1.2308 0.2279 1.6829-0.5345 1.6829-1.1849 0-0.587-0.023-2.5276-0.033-4.5857-6.8521 1.4901-8.2979-2.906-8.2979-2.906-1.1205-2.8467-2.7347-3.6039-2.7347-3.6039-2.2349-1.5287 0.1685-1.4972 0.1685-1.4972 2.473 0.1737 3.7755 2.5385 3.7755 2.5385 2.1967 3.7651 5.7618 2.6765 7.1675 2.0472 0.2211-1.5917 0.8591-2.6786 1.5637-3.2936-5.4707-0.6226-11.222-2.7347-11.222-12.172 0-2.6888 0.9623-4.8861 2.538-6.611-0.2557-0.6206-1.0989-3.1255 0.2386-6.5183 0 0 2.0684-0.6616 6.7747 2.525 1.9648-0.5458 4.0719-0.8195 6.165-0.829 2.093 0.01 4.2017 0.2832 6.17 0.829 4.7012-3.1866 6.7665-2.525 6.7665-2.525 1.3406 3.3928 0.4974 5.8977 0.2417 6.5183 1.5793 1.7249 2.5348 3.9221 2.5348 6.611 0 9.4602-5.7618 11.543-11.246 12.153 0.8834 0.7644 1.6704 2.2632 1.6704 4.561 0 3.2955-0.028 5.9479-0.028 6.7592 0 0.6556 0.4432 1.4236 1.6915 1.1818 9.7812-3.2605 16.83-12.49 16.83-23.368 0-13.603-11.028-24.63-24.63-24.63z" clip-rule="evenodd" fill-rule="evenodd"/><path d="m-1150 1698.3c-0.054 0.1227-0.2469 0.1593-0.4222 0.075-0.1788-0.08-0.2788-0.2473-0.2211-0.37 0.053-0.126 0.2457-0.161 0.4242-0.077 0.1789 0.081 0.2809 0.2489 0.2191 0.3716z"/><path d="m-1149 1699.4c-0.1174 0.1086-0.3473 0.058-0.5031-0.1139-0.1613-0.1718-0.1912-0.4016-0.072-0.5118 0.1211-0.1088 0.3438-0.058 0.505 0.1139 0.1614 0.1737 0.1928 0.4015 0.07 0.5118z"/><path d="m-1148 1700.8c-0.151 0.1051-0.3979 0.01-0.5505-0.2123-0.151-0.2191-0.151-0.4819 0-0.5872 0.1526-0.1051 0.396-0.01 0.5505 0.2068 0.1506 0.2228 0.1506 0.4856 0 0.5927z"/><path d="m-1146.7 1702.2c-0.1351 0.1489-0.4227 0.1086-0.6329-0.094-0.2155-0.1984-0.2753-0.4803-0.1403-0.6293 0.1371-0.149 0.4263-0.1072 0.6381 0.094 0.2139 0.1983 0.2788 0.4819 0.1351 0.6294z"/><path d="m-1144.8 1703c-0.06 0.1927-0.3365 0.2804-0.6154 0.1984-0.2788-0.085-0.4608-0.3103-0.4047-0.5051 0.058-0.1943 0.3361-0.2855 0.6169-0.1979 0.2785 0.084 0.4609 0.3082 0.4032 0.5046z"/><path d="m-1142.8 1703.1c0.01 0.2031-0.2299 0.3716-0.5226 0.3752-0.2944 0.01-0.533-0.1577-0.5361-0.3577 0-0.2052 0.2313-0.3717 0.5258-0.3768 0.2927-0.01 0.5329 0.1577 0.5329 0.3593z"/><path d="m-1140.9 1702.8c0.035 0.198-0.1686 0.4015-0.4594 0.4557-0.2859 0.053-0.5504-0.07-0.587-0.2665-0.035-0.2031 0.1716-0.4066 0.4573-0.4592 0.2912-0.051 0.552 0.068 0.5891 0.27z"/></g></svg>
