<?xml version="1.0" encoding="UTF-8"?>
<svg enable-background="new 0 0 56.693 56.693" version="1.1" viewBox="0 0 56.693 56.693" xml:space="preserve" xmlns="http://www.w3.org/2000/svg"><path d="m28.346 3.7215c-13.6 0-24.625 11.025-24.625 24.625 0 13.602 11.024 24.625 24.625 24.625 13.602 0 24.625-11.023 24.625-24.625 0-13.6-11.024-24.625-24.625-24.625zm-7.637 35.735c-1.788 0-3.237-1.451-3.237-3.238 0-1.789 1.449-3.238 3.237-3.238 1.787 0 3.238 1.449 3.238 3.238 0 1.786-1.451 3.238-3.238 3.238zm8.123 0.021c0-3.057-1.182-5.928-3.33-8.082-2.143-2.154-4.992-3.342-8.028-3.342v-4.674c8.84 0 16.03 7.223 16.03 16.098zm8.256 4e-3c0-10.867-8.795-19.711-19.606-19.711v-4.676c13.387 0 24.28 10.942 24.28 24.387z" fill="#fff"/></svg>
