<?xml version="1.0" encoding="UTF-8"?>
<svg width="103mm" height="44.2165mm" version="1.1" viewBox="0 0 103 44.2165" xmlns="http://www.w3.org/2000/svg" xmlns:xlink="http://www.w3.org/1999/xlink">
 <defs>
  <linearGradient id="a" x1="143.333" x2="184.113" y1="61.8798" y2="104.893" gradientTransform="matrix(1 0 0 .400169 0 64.7365)" gradientUnits="userSpaceOnUse">
   <stop stop-color="#333" offset="0"/>
   <stop offset="1"/>
  </linearGradient>
 </defs>
 <g transform="translate(-39.4988 -118.524)">
  <g transform="matrix(2 0 0 2 -237.727 -55.6084)">
   <rect x="139.863" y="88.3163" width="49" height="19.6083" fill="url(#a)" stroke="#fff" stroke-linecap="square" stroke-width="2.5"/>
   <g transform="matrix(.911547 0 0 .911547 14.1572 18.0538)" fill="#fff" stroke-width=".548518">
    <path d="m164.446 81.935-1.95611 3.38827h0.79788l-1.80271 3.1221h0.79932l-2.32176 4.02131h3.27633v4.91418h2.40265v-4.91418h3.27611l-2.30786-4.02131h0.78543l-1.79188-3.1221h0.78726z"/>
    <path d="m147.001 93.7995c-0.56445 0-1.08938-0.09596-1.5748-0.287867-0.47413-0.203199-0.86924-0.49671-1.18533-0.880531l0.94827-1.50706 0.0847-0.135466 0.13547 0.08467c0 0.02258 0.0113 0.07338 0.0339 0.1524 0.0226 0.06773 0.0565 0.141111 0.1016 0.220133 0.0565 0.07902 0.1242 0.158044 0.2032 0.237066 0.34995 0.237066 0.7112 0.355599 1.08373 0.355599 0.89182 0 1.33773-0.745065 1.33773-2.2352v-5.26626h-1.94733v-1.54093h5.40172v1.54093h-1.55786v5.40172c0.0113 0.835376-0.1242 1.54658-0.4064 2.1336-0.28222 0.575732-0.6604 1.01035-1.13453 1.30386-0.46285 0.282222-0.97085 0.423333-1.524 0.423333zm8.61905-10.8034c0.88053 0 1.58044 0.118533 2.09973 0.355599 0.51929 0.237067 0.97084 0.603955 1.35466 1.10066 0.74507 1.016 1.1176 2.31422 1.1176 3.89466-0.0677 3.46568-1.65946 5.19852-4.77519 5.19852h-2.52306v-10.5494zm-0.254 9.05932c1.96426 0 2.94639-1.20791 2.94639-3.62373 0-1.27564-0.20884-2.24648-0.62653-2.91253-0.4064-0.666043-1.1176-0.999065-2.13359-0.999065h-0.79587v7.53532zm14.2917-9.05932h1.6764l2.04893 4.84292 2.04893-4.85986h1.6764v10.5664h-1.65947v-7.36598l-1.65946 3.87772h-0.93133l-1.55787-3.86079v7.34905h-1.64253zm10.9728 0.1524c-0.0677 0.06773-0.11289 0.141111-0.13546 0.220133-0.0113 0.07902-0.0169 0.214488-0.0169 0.406399v8.21265h4.84293v1.55786h-6.77332v-10.5494h2.08279z" stroke-width=".0725644" aria-label="JDAML"/>
   </g>
  </g>
 </g>
</svg>
